<svg width="36" height="36" viewBox="0 0 36 36" fill="none" xmlns="http://www.w3.org/2000/svg">
<path d="M28.5144 16.3806C29.0082 15.8733 29.8545 14.8272 30.5212 14.7922C30.8253 14.7782 31.1224 14.8868 31.3456 15.0938C31.5703 15.2995 31.701 15.5883 31.7072 15.8929C31.7225 16.6082 30.6409 17.4398 30.1052 17.9978C30.4337 18.3519 30.8765 18.7127 31.2398 19.0421C32.0683 19.7931 31.8485 20.8886 30.7144 21.1452C29.9166 21.2144 29.1539 20.092 28.4831 19.611C28.0767 20.0121 27.0802 21.2319 26.4172 21.2416C25.5053 21.255 24.8834 20.234 25.483 19.452C25.8405 18.9858 26.4268 18.4635 26.89 18.0025C26.4335 17.4836 25.5489 16.839 25.3362 16.214C25.1225 15.586 25.5695 14.9682 26.1934 14.8091C27.2518 14.7118 27.6895 15.7675 28.5144 16.3806Z" fill="#FF5A00"/>
<path d="M19.1194 5.98493C19.6898 5.90825 20.2697 6.01647 20.774 6.29364C21.6235 6.75763 22.1198 7.61604 22.1125 8.58133C22.1099 8.92413 22.1176 9.27605 22.1177 9.62016L22.1179 11.6138L22.1166 18.2485L22.1191 24.3108C22.1195 25.3667 22.1223 26.4148 22.1088 27.4762C22.0858 29.2929 20.0876 30.5295 18.4449 29.8094C17.6551 29.4633 16.7887 28.8996 16.021 28.46L10.9326 25.5492C10.1592 25.0705 9.90712 25.1383 9.0441 25.1416L7.09159 25.15C6.62008 25.152 6.015 25.1754 5.56427 25.0909C5.22438 25.0293 4.8995 24.9029 4.60728 24.7187C3.19995 23.8238 3.37666 22.5587 3.37588 21.1056L3.37532 18.1074L3.37622 15.0338C3.37679 13.5184 3.18538 12.0165 4.77842 11.1782C5.52099 10.7874 6.28216 10.8655 7.09581 10.8679L9.09596 10.8719C9.37619 10.8733 9.99462 10.9071 10.2288 10.815C10.7011 10.6293 11.2313 10.272 11.6779 10.0184L15.577 7.79477C16.514 7.25994 18.1382 6.19249 19.1194 5.98493ZM11.6176 23.3306L14.7329 25.0703L17.6307 26.6872C18.1389 26.9707 18.6525 27.2634 19.1583 27.5307C19.3673 27.6411 19.7734 27.784 19.8093 27.4765C19.9282 26.4579 19.8735 24.9741 19.8734 23.9636L19.8725 18.047C19.8724 16.9459 19.9467 8.74417 19.8136 8.39099C19.7037 8.25339 19.614 8.23208 19.4413 8.22512C19.0522 8.38895 11.8607 12.4861 11.6806 12.6857C11.5884 13.065 11.6235 14.9228 11.6236 15.4756L11.625 20.5843C11.6253 21.4563 11.6522 22.4777 11.6176 23.3306ZM9.18515 22.8115L9.33098 22.8045C9.39472 22.7212 9.38698 13.8778 9.35822 13.154C8.21069 13.1547 7.06748 13.1321 5.91927 13.1598C5.81781 13.2023 5.72433 13.2361 5.67726 13.3441C5.57696 13.5743 5.5926 21.2334 5.63251 22.146C5.63869 22.3246 5.66506 22.502 5.71111 22.6747C5.98438 22.9174 8.69556 22.8124 9.18515 22.8115Z" fill="#FF5A00"/>
</svg>
